<svg width="21" height="24" viewBox="0 0 21 24" fill="none" xmlns="http://www.w3.org/2000/svg">
<path d="M2 20.9833V2.85C2 2.38056 2.38056 2 2.85 2H6.81667C7.28611 2 7.66667 2.38056 7.66667 2.85V20.9833C7.66667 21.4528 7.28611 21.8333 6.81667 21.8333H2.85C2.38056 21.8333 2 21.4528 2 20.9833Z" stroke="white" stroke-width="2.41716"/>
<path d="M13.3333 20.9833V2.85C13.3333 2.38056 13.7139 2 14.1833 2H18.15C18.6195 2 19 2.38056 19 2.85V20.9833C19 21.4528 18.6195 21.8333 18.15 21.8333H14.1833C13.7139 21.8333 13.3333 21.4528 13.3333 20.9833Z" stroke="white" stroke-width="2.41716"/>
</svg>
